<svg width="169" height="29" viewBox="0 0 169 29" fill="none" xmlns="http://www.w3.org/2000/svg">
<path fill-rule="evenodd" clip-rule="evenodd" d="M7.42039 21.4383C11.5186 21.4383 14.8408 18.116 14.8408 14.0179C14.8408 9.91969 11.5186 6.59747 7.42039 6.59747C3.32222 6.59747 0 9.91969 0 14.0179C0 18.116 3.32222 21.4383 7.42039 21.4383ZM7.49711 17.8431C9.56737 17.8431 11.2457 16.1649 11.2457 14.0946C11.2457 12.0243 9.56737 10.346 7.49711 10.346C5.42684 10.346 3.74855 12.0243 3.74855 14.0946C3.74855 16.1649 5.42684 17.8431 7.49711 17.8431Z" fill="#13472D"/>
<path fill-rule="evenodd" clip-rule="evenodd" d="M161.58 21.4383C165.678 21.4383 169 18.116 169 14.0179C169 9.91969 165.678 6.59747 161.58 6.59747C157.481 6.59747 154.159 9.91969 154.159 14.0179C154.159 18.116 157.481 21.4383 161.58 21.4383ZM161.656 17.8431C163.727 17.8431 165.405 16.1649 165.405 14.0946C165.405 12.0243 163.727 10.346 161.656 10.346C159.586 10.346 157.908 12.0243 157.908 14.0946C157.908 16.1649 159.586 17.8431 161.656 17.8431Z" fill="#7DAAFC"/>
<path d="M17.8809 28.1891V6.71741H21.2995L21.7194 8.84658C22.1992 8.18684 22.8289 7.60706 23.6086 7.10726C24.4083 6.60745 25.4379 6.35755 26.6975 6.35755C28.0969 6.35755 29.3464 6.69741 30.446 7.37715C31.5456 8.05689 32.4152 8.98653 33.055 10.1661C33.6948 11.3456 34.0146 12.6851 34.0146 14.1845C34.0146 15.6839 33.6948 17.0234 33.055 18.203C32.4152 19.3625 31.5456 20.2822 30.446 20.9619C29.3464 21.6217 28.0969 21.9515 26.6975 21.9515C25.5779 21.9515 24.5983 21.7416 23.7586 21.3218C22.9189 20.9019 22.2392 20.3122 21.7194 19.5525V28.1891H17.8809ZM25.8878 18.5928C27.1073 18.5928 28.1169 18.183 28.9166 17.3633C29.7163 16.5436 30.1161 15.484 30.1161 14.1845C30.1161 12.885 29.7163 11.8154 28.9166 10.9758C28.1169 10.1361 27.1073 9.71625 25.8878 9.71625C24.6482 9.71625 23.6286 10.1361 22.8289 10.9758C22.0492 11.7954 21.6594 12.855 21.6594 14.1545C21.6594 15.454 22.0492 16.5236 22.8289 17.3633C23.6286 18.183 24.6482 18.5928 25.8878 18.5928Z" fill="#13472D"/>
<path d="M44.6708 21.9515C43.1714 21.9515 41.8419 21.6316 40.6824 20.9919C39.5228 20.3521 38.6132 19.4525 37.9534 18.2929C37.2937 17.1334 36.9638 15.7939 36.9638 14.2745C36.9638 12.7351 37.2837 11.3656 37.9234 10.1661C38.5832 8.96654 39.4828 8.0369 40.6224 7.37715C41.7819 6.69741 43.1414 6.35755 44.7008 6.35755C46.1603 6.35755 47.4498 6.67742 48.5693 7.31717C49.6889 7.95693 50.5586 8.83659 51.1783 9.95616C51.8181 11.0557 52.1379 12.2853 52.1379 13.6447C52.1379 13.8646 52.1279 14.0946 52.108 14.3345C52.108 14.5744 52.098 14.8243 52.078 15.0842H40.7723C40.8523 16.2437 41.2521 17.1534 41.9719 17.8131C42.7116 18.4729 43.6012 18.8027 44.6408 18.8027C45.4205 18.8027 46.0703 18.6328 46.5901 18.2929C47.1299 17.9331 47.5297 17.4733 47.7896 16.9135H51.6881C51.4082 17.8531 50.9384 18.7128 50.2787 19.4925C49.6389 20.2522 48.8392 20.8519 47.8796 21.2918C46.94 21.7316 45.8704 21.9515 44.6708 21.9515ZM44.7008 9.47634C43.7612 9.47634 42.9315 9.74624 42.2118 10.286C41.4921 10.8058 41.0322 11.6055 40.8323 12.6851H48.2395C48.1795 11.7055 47.8196 10.9258 47.1599 10.346C46.5001 9.76623 45.6804 9.47634 44.7008 9.47634Z" fill="#13472D"/>
<path d="M55.3664 21.5917V6.71741H58.7551L59.055 9.23643C59.5148 8.35677 60.1745 7.65704 61.0342 7.13724C61.9139 6.61744 62.9435 6.35755 64.123 6.35755C65.9623 6.35755 67.3917 6.93732 68.4113 8.09687C69.431 9.25643 69.9408 10.9558 69.9408 13.1949V21.5917H66.1022V13.5548C66.1022 12.2753 65.8423 11.2956 65.3225 10.6159C64.8027 9.93616 63.9931 9.5963 62.8935 9.5963C61.8139 9.5963 60.9242 9.97615 60.2245 10.7359C59.5448 11.4956 59.2049 12.5552 59.2049 13.9146V21.5917H55.3664Z" fill="#13472D"/>
<path d="M86.9046 21.9515C85.5851 21.9515 84.4256 21.7416 83.4259 21.3218C82.4263 20.8819 81.6266 20.2822 81.0269 19.5225C80.4271 18.7628 80.0672 17.8831 79.9473 16.8835H83.8158C83.9357 17.4633 84.2556 17.9631 84.7754 18.3829C85.3152 18.7827 86.0049 18.9827 86.8446 18.9827C87.6843 18.9827 88.2941 18.8127 88.6739 18.4729C89.0738 18.133 89.2737 17.7431 89.2737 17.3033C89.2737 16.6636 88.9938 16.2337 88.434 16.0138C87.8742 15.7739 87.0945 15.544 86.0949 15.3241C85.4552 15.1841 84.8054 15.0142 84.1457 14.8143C83.4859 14.6144 82.8762 14.3645 82.3164 14.0646C81.7766 13.7447 81.3367 13.3448 80.9969 12.865C80.657 12.3652 80.4871 11.7555 80.4871 11.0357C80.4871 9.71625 81.0069 8.60668 82.0465 7.70702C83.1061 6.80737 84.5855 6.35755 86.4848 6.35755C88.2441 6.35755 89.6435 6.76739 90.6831 7.58707C91.7427 8.40675 92.3725 9.53632 92.5724 10.9758H88.9438C88.7239 9.87619 87.8942 9.3264 86.4548 9.3264C85.7351 9.3264 85.1753 9.46634 84.7754 9.74624C84.3956 10.0261 84.2056 10.376 84.2056 10.7958C84.2056 11.2357 84.4955 11.5855 85.0753 11.8454C85.6551 12.1053 86.4248 12.3452 87.3844 12.5651C88.424 12.8051 89.3736 13.075 90.2333 13.3748C91.113 13.6547 91.8127 14.0846 92.3325 14.6643C92.8523 15.2241 93.1122 16.0338 93.1122 17.0934C93.1322 18.013 92.8923 18.8427 92.3925 19.5824C91.8927 20.3222 91.173 20.9019 90.2333 21.3218C89.2937 21.7416 88.1841 21.9515 86.9046 21.9515Z" fill="#7DAAFC"/>
<path d="M102.671 21.5917C101.112 21.5917 99.8626 21.2118 98.9229 20.4521C97.9833 19.6924 97.5135 18.3429 97.5135 16.4037V9.92617H94.9645V6.71741H97.5135L97.9633 2.72895H101.352V6.71741H105.37V9.92617H101.352V16.4337C101.352 17.1534 101.502 17.6532 101.802 17.9331C102.122 18.193 102.661 18.3229 103.421 18.3229H105.28V21.5917H102.671Z" fill="#7DAAFC"/>
<path d="M114.244 21.9515C112.385 21.9515 110.945 21.3717 109.926 20.2122C108.926 19.0526 108.426 17.3533 108.426 15.1142V6.71741H112.235V14.7543C112.235 16.0338 112.495 17.0134 113.014 17.6932C113.534 18.3729 114.354 18.7128 115.473 18.7128C116.533 18.7128 117.403 18.3329 118.082 17.5732C118.782 16.8135 119.132 15.7539 119.132 14.3944V6.71741H122.971V21.5917H119.582L119.282 19.0726C118.822 19.9523 118.152 20.652 117.273 21.1718C116.413 21.6916 115.404 21.9515 114.244 21.9515Z" fill="#7DAAFC"/>
<path d="M133.748 21.9515C132.349 21.9515 131.099 21.6117 130 20.9319C128.9 20.2522 128.031 19.3225 127.391 18.143C126.751 16.9634 126.431 15.624 126.431 14.1245C126.431 12.6251 126.751 11.2956 127.391 10.1361C128.031 8.95654 128.9 8.0369 130 7.37715C131.099 6.69741 132.349 6.35755 133.748 6.35755C134.868 6.35755 135.848 6.56746 136.687 6.9873C137.527 7.40714 138.207 7.99691 138.726 8.75662V0H142.565V21.5917H139.146L138.726 19.4625C138.247 20.1222 137.607 20.702 136.807 21.2018C136.028 21.7016 135.008 21.9515 133.748 21.9515ZM134.558 18.5928C135.798 18.5928 136.807 18.183 137.587 17.3633C138.387 16.5236 138.786 15.454 138.786 14.1545C138.786 12.855 138.387 11.7954 137.587 10.9758C136.807 10.1361 135.798 9.71625 134.558 9.71625C133.339 9.71625 132.329 10.1261 131.529 10.9458C130.73 11.7655 130.33 12.825 130.33 14.1245C130.33 15.424 130.73 16.4936 131.529 17.3333C132.329 18.173 133.339 18.5928 134.558 18.5928Z" fill="#7DAAFC"/>
<path d="M148.543 4.4083C147.843 4.4083 147.263 4.19838 146.804 3.77854C146.364 3.3587 146.144 2.82891 146.144 2.18916C146.144 1.5494 146.364 1.0296 146.804 0.629756C147.263 0.209919 147.843 0 148.543 0C149.243 0 149.812 0.209919 150.252 0.629756C150.712 1.0296 150.942 1.5494 150.942 2.18916C150.942 2.82891 150.712 3.3587 150.252 3.77854C149.812 4.19838 149.243 4.4083 148.543 4.4083ZM146.624 21.5917V6.71741H150.462V21.5917H146.624Z" fill="#7DAAFC"/>
</svg>
