<svg width="36" height="35" viewBox="0 0 36 35" fill="none" xmlns="http://www.w3.org/2000/svg">
<path fill-rule="evenodd" clip-rule="evenodd" d="M19.8363 34.6726C28.5824 34.6726 35.6726 27.5824 35.6726 18.8363C35.6726 10.0901 28.5824 3 19.8363 3C11.0901 3 4 10.0901 4 18.8363C4 27.5824 11.0901 34.6726 19.8363 34.6726ZM20 27C24.4183 27 28 23.4183 28 19C28 14.5817 24.4183 11 20 11C15.5817 11 12 14.5817 12 19C12 23.4183 15.5817 27 20 27Z" fill="#7DAAFC"/>
<path fill-rule="evenodd" clip-rule="evenodd" d="M15.8363 31.6726C24.5824 31.6726 31.6726 24.5824 31.6726 15.8363C31.6726 7.09014 24.5824 0 15.8363 0C7.09014 0 0 7.09014 0 15.8363C0 24.5824 7.09014 31.6726 15.8363 31.6726ZM16 24C20.4183 24 24 20.4183 24 16C24 11.5817 20.4183 8 16 8C11.5817 8 8 11.5817 8 16C8 20.4183 11.5817 24 16 24Z" fill="#13472D"/>
</svg>
